<svg width="24" height="24" viewBox="0 0 24 24" fill="none" xmlns="http://www.w3.org/2000/svg">
<path fill-rule="evenodd" clip-rule="evenodd" d="M10.8032 4.13674C12.5688 2.37109 15.4315 2.37109 17.1972 4.13674C18.9628 5.90239 18.9628 8.76508 17.1972 10.5307L11.8638 15.8641C10.8345 16.8934 9.16573 16.8934 8.13645 15.8641C7.10718 14.8348 7.10718 13.166 8.13645 12.1368L13.4698 6.80341C13.7627 6.51052 14.2376 6.51052 14.5305 6.80341C14.8234 7.0963 14.8234 7.57118 14.5305 7.86407L9.19711 13.1974C8.75363 13.6409 8.75363 14.3599 9.19711 14.8034C9.6406 15.2469 10.3597 15.2469 10.8032 14.8034L16.1365 9.47008C17.3164 8.29021 17.3164 6.37727 16.1365 5.1974C14.9566 4.01753 13.0437 4.01754 11.8638 5.1974L6.53044 10.5307C4.6142 12.447 4.6142 15.5538 6.53045 17.4701C8.44669 19.3863 11.5536 19.3863 13.4698 17.4701L18.8032 12.1368C19.0961 11.8439 19.5709 11.8439 19.8638 12.1368C20.1567 12.4296 20.1567 12.9045 19.8638 13.1974L14.5305 18.5307C12.0285 21.0328 7.97182 21.0328 5.46979 18.5308C2.96775 16.0287 2.96775 11.9721 5.46978 9.47008L10.8032 4.13674Z" fill="#15B79E"/>
</svg>
