<svg width="20" height="20" viewBox="0 0 20 20" fill="none" xmlns="http://www.w3.org/2000/svg">
<path fill-rule="evenodd" clip-rule="evenodd" d="M3.89663 7.64304C3.99576 7.89389 4.15084 8.11871 4.35003 8.3003C4.54921 8.48189 4.78721 8.61543 5.04582 8.69072L10.7336 10.0003L5.0993 11.2373C4.83472 11.3098 4.5906 11.443 4.38621 11.6263C4.18182 11.8095 4.02276 12.0379 3.92159 12.2933L2.56918 17.0246C2.49518 17.2081 2.48011 17.4102 2.52607 17.6027C2.57203 17.7953 2.67672 17.9687 2.82561 18.0988C2.97449 18.229 3.16015 18.3094 3.35678 18.329C3.55342 18.3486 3.75125 18.3063 3.92277 18.208L17.0095 10.8337C17.1581 10.7513 17.282 10.6306 17.3683 10.484C17.4545 10.3375 17.5 10.1705 17.5 10.0003C17.5 9.83019 17.4545 9.66316 17.3683 9.5166C17.282 9.37005 17.1581 9.24931 17.0095 9.16694L3.92277 1.79269C3.75125 1.6944 3.55342 1.65209 3.35678 1.67165C3.16015 1.69121 2.97449 1.77167 2.82561 1.90183C2.67672 2.03199 2.57203 2.20539 2.52607 2.39792C2.48011 2.59045 2.49518 2.79254 2.56918 2.97609L3.89663 7.64304Z" fill="#15B79E"/>
</svg>
